<?xml version="1.0" standalone="no"?>
<!DOCTYPE svg PUBLIC "-//W3C//DTD SVG 20010904//EN"
 "http://www.w3.org/TR/2001/REC-SVG-20010904/DTD/svg10.dtd">
<svg version="1.0" xmlns="http://www.w3.org/2000/svg"
 width="856.000000pt" height="856.000000pt" viewBox="0 0 856.000000 856.000000"
 preserveAspectRatio="xMidYMid meet">
<metadata>
Created by potrace 1.14, written by Peter Selinger 2001-2017
</metadata>
<g transform="translate(0.000000,856.000000) scale(0.100000,-0.100000)"
fill="#000000" stroke="none">
<path d="M1066 8545 c4 -8 10 -15 14 -15 5 0 12 -10 16 -22 3 -11 26 -54 50
-93 24 -40 44 -77 44 -83 0 -6 3 -12 8 -14 9 -4 41 -57 49 -80 3 -10 9 -18 14
-18 5 0 9 -4 9 -9 0 -13 82 -155 92 -159 4 -2 8 -9 8 -14 0 -6 24 -52 54 -102
29 -50 62 -107 72 -126 10 -19 22 -37 25 -40 3 -3 8 -12 12 -20 4 -8 20 -37
37 -65 17 -27 33 -58 37 -67 3 -10 9 -18 14 -18 5 0 9 -5 9 -11 0 -12 76 -145
97 -170 7 -9 10 -19 6 -22 -3 -4 -1 -7 5 -7 7 0 12 -4 12 -10 0 -5 25 -50 55
-100 30 -50 55 -95 55 -100 0 -5 6 -15 13 -22 7 -7 29 -41 48 -75 39 -71 151
-264 192 -332 15 -25 39 -66 53 -91 14 -25 36 -63 49 -85 13 -22 30 -51 38
-65 8 -14 46 -81 86 -148 39 -68 71 -128 71 -133 0 -5 4 -9 9 -9 5 0 11 -8 15
-17 3 -10 11 -27 18 -38 50 -76 76 -124 71 -129 -4 -3 -2 -6 4 -6 6 0 13 -8
17 -17 3 -10 17 -36 30 -58 14 -22 30 -49 36 -60 6 -11 24 -42 41 -70 16 -27
33 -58 36 -67 3 -10 9 -18 14 -18 5 0 9 -4 9 -10 0 -5 32 -62 70 -126 39 -65
70 -120 70 -124 0 -4 13 -26 28 -51 54 -84 132 -219 132 -229 0 -6 5 -10 10
-10 6 0 10 -4 10 -10 0 -5 14 -33 31 -62 24 -40 29 -56 20 -68 -9 -14 -52 -87
-91 -155 -9 -16 -28 -48 -41 -71 -13 -23 -61 -106 -107 -185 -46 -79 -87 -151
-92 -159 -60 -100 -100 -171 -100 -176 0 -3 -8 -18 -19 -32 -10 -15 -33 -53
-50 -85 -18 -32 -45 -79 -61 -105 -16 -26 -37 -64 -47 -85 -10 -20 -21 -37
-25 -37 -5 0 -8 -4 -8 -9 0 -7 -106 -195 -161 -286 -11 -16 -22 -37 -26 -45
-9 -19 -90 -160 -104 -180 -5 -8 -15 -27 -22 -42 -6 -16 -15 -28 -19 -28 -4 0
-8 -4 -8 -9 0 -5 -18 -39 -40 -75 -22 -36 -40 -70 -40 -76 0 -5 -5 -10 -12
-10 -6 0 -9 -2 -6 -5 5 -6 -79 -156 -101 -182 -6 -7 -11 -14 -11 -17 0 -2 -43
-80 -97 -173 -53 -92 -104 -182 -114 -200 -10 -17 -29 -50 -43 -72 -15 -22
-26 -43 -26 -45 0 -3 -20 -39 -45 -79 -25 -41 -45 -80 -45 -86 0 -6 -4 -11
-10 -11 -5 0 -10 -4 -10 -9 0 -10 -48 -93 -82 -143 -10 -15 -18 -34 -18 -43 0
-8 -3 -15 -8 -15 -4 0 -16 -17 -27 -38 -11 -20 -34 -61 -52 -90 -18 -28 -34
-55 -34 -60 -1 -4 -12 -23 -24 -42 -12 -19 -41 -69 -64 -110 -23 -41 -46 -82
-52 -90 -22 -35 -239 -413 -239 -417 0 -2 -14 -24 -30 -49 -17 -24 -29 -44
-27 -44 3 0 -24 -48 -59 -108 -107 -179 -117 -197 -113 -198 2 0 -3 -9 -11
-19 -15 -18 -34 -49 -46 -75 -4 -8 -22 -39 -41 -67 -18 -29 -30 -53 -26 -53 3
0 -1 -8 -9 -17 -8 -10 -30 -45 -49 -78 -19 -33 -39 -69 -46 -80 -7 -11 -15
-27 -19 -35 -4 -8 -17 -31 -29 -50 -12 -19 -33 -56 -47 -81 -49 -87 -53 -94
-63 -101 -7 -5 -7 -8 0 -8 7 0 7 -3 0 -8 -11 -7 -23 -28 -63 -102 -13 -25 -29
-48 -35 -52 -6 -4 -8 -10 -5 -13 5 -5 2241 -10 2334 -6 6 1 33 38 59 83 27 46
79 135 117 199 37 64 68 122 68 128 0 6 4 11 8 11 8 0 36 51 32 59 -1 2 2 7 7
10 5 3 25 33 44 66 19 33 39 69 46 80 7 11 16 27 20 35 4 8 42 73 83 143 98
167 109 187 210 361 47 81 95 164 107 184 12 20 30 51 40 69 22 40 151 261
318 548 70 121 136 234 145 250 10 17 75 129 145 250 71 121 135 233 144 250
9 16 19 32 22 35 3 3 17 25 30 50 51 90 71 126 91 158 l20 33 49 -81 c27 -45
49 -85 49 -91 0 -5 5 -9 11 -9 5 0 8 -4 5 -9 -3 -5 1 -14 9 -21 8 -7 15 -19
15 -26 0 -8 5 -14 10 -14 6 0 10 -4 10 -10 0 -5 36 -70 80 -145 44 -75 80
-140 80 -145 0 -6 5 -10 10 -10 6 0 10 -4 10 -9 0 -8 80 -151 90 -161 7 -7 48
-80 62 -113 7 -15 16 -27 20 -27 4 0 8 -4 8 -10 0 -5 14 -33 31 -62 18 -29 40
-66 49 -83 10 -16 50 -86 90 -155 40 -69 78 -135 84 -147 6 -13 14 -23 19 -23
4 0 7 -5 7 -10 0 -6 21 -46 47 -90 27 -44 55 -93 63 -108 13 -24 78 -135 105
-180 6 -9 28 -48 50 -87 22 -38 45 -77 50 -87 28 -47 80 -136 95 -163 10 -16
43 -75 75 -130 32 -55 76 -131 98 -170 22 -38 44 -72 48 -73 5 -2 9 -9 9 -16
0 -8 9 -25 20 -38 10 -14 17 -28 14 -30 -2 -3 2 -11 11 -18 8 -7 15 -19 15
-26 0 -8 5 -14 10 -14 6 0 10 -6 10 -12 1 -7 23 -49 50 -93 27 -44 63 -107 81
-140 17 -33 35 -62 38 -65 4 -3 18 -26 31 -52 l25 -48 60 -1 c285 -2 2277 0
2280 3 5 5 -1 17 -115 213 -99 171 -118 203 -151 262 -12 21 -43 75 -70 121
-27 45 -49 85 -49 89 0 4 -6 14 -14 22 -7 9 -31 48 -51 86 -21 39 -53 94 -72
123 -18 29 -33 55 -33 58 0 3 -9 19 -21 35 -11 16 -17 29 -12 29 4 0 3 4 -3 8
-6 4 -21 27 -35 52 -13 25 -26 47 -29 50 -5 5 -20 32 -65 112 -11 20 -44 79
-74 130 -30 51 -65 113 -79 138 -14 25 -33 57 -43 72 -11 14 -19 29 -19 32 0
3 -24 45 -53 93 -29 48 -58 99 -65 113 -7 14 -21 39 -31 55 -10 17 -71 121
-135 232 -63 111 -125 217 -136 235 -11 18 -23 40 -27 48 -3 8 -18 33 -32 55
-13 22 -38 65 -54 95 -16 30 -34 62 -41 70 -6 8 -16 24 -22 35 -38 69 -66 118
-88 154 -14 22 -26 43 -26 45 0 3 -22 41 -50 85 -27 45 -50 85 -51 89 -2 7
-14 28 -46 80 -10 15 -18 29 -18 32 0 3 -26 48 -56 100 -31 52 -71 122 -90
155 -18 33 -36 62 -39 65 -3 3 -11 16 -18 30 -7 14 -22 41 -33 60 -21 33 -40
68 -85 150 -10 19 -22 37 -25 40 -3 3 -23 37 -44 75 -21 39 -49 87 -62 107
-12 21 -23 42 -23 48 0 5 -4 10 -10 10 -5 0 -10 4 -10 9 0 9 -47 94 -85 156
-7 11 -13 25 -15 30 -1 6 -11 22 -21 37 -10 14 -19 31 -19 37 0 6 -3 11 -7 11
-5 0 -13 10 -19 23 -6 12 -52 93 -102 180 -51 88 -92 163 -92 167 0 5 -6 13
-12 17 -7 4 -31 43 -53 85 -22 43 -43 78 -47 78 -5 0 -8 5 -8 10 0 6 -41 80
-90 165 -50 85 -90 157 -90 160 0 4 -13 25 -28 48 -16 23 -32 49 -35 57 -4 8
-21 38 -38 65 -16 28 -33 58 -36 68 -3 9 -9 17 -14 17 -5 0 -9 5 -9 11 0 6
-31 63 -69 127 -38 64 -78 134 -90 155 -38 66 -58 101 -85 147 -15 25 -29 53
-33 63 -3 9 -9 17 -14 17 -5 0 -9 4 -9 9 0 5 -23 48 -50 96 -27 48 -50 90 -50
95 0 5 -3 10 -8 12 -9 4 -51 76 -59 101 -3 9 -9 17 -14 17 -5 0 -9 6 -9 14 0
8 -6 21 -12 28 -7 7 -22 31 -34 53 -26 49 -168 296 -201 347 -12 21 -23 40
-23 43 0 2 -18 34 -40 70 -22 36 -40 70 -40 75 0 6 -5 10 -11 10 -5 0 -7 5 -4
10 3 6 2 10 -4 10 -6 0 -13 11 -17 25 -3 14 -10 25 -15 25 -5 0 -9 6 -9 14 0
7 -7 19 -15 26 -9 7 -13 15 -11 18 3 3 -3 17 -13 31 -10 14 -28 43 -40 64 -11
20 -31 54 -42 75 -12 20 -42 73 -68 117 -26 44 -51 87 -55 95 -4 8 -18 33 -31
55 -13 22 -36 60 -50 85 -13 25 -38 68 -55 95 -17 28 -38 66 -48 85 -9 19 -20
37 -23 40 -5 5 -110 185 -162 280 -16 30 -38 66 -47 80 -9 14 -19 30 -21 35
-9 22 -83 150 -90 155 -5 3 -14 19 -21 35 -7 17 -33 63 -57 103 l-43 72 -1189
0 c-1052 0 -1188 -2 -1183 -15z"/>
</g>
</svg>
